<?xml version="1.0" standalone="no"?>
<svg xmlns:xlink="http://www.w3.org/1999/xlink" id="wave" style="transform:rotate(0deg); transition: 0.3s" viewBox="0 0 1440 490" version="1.1" xmlns="http://www.w3.org/2000/svg"><defs><linearGradient id="sw-gradient-0" x1="0" x2="0" y1="1" y2="0"><stop stop-color="rgba(225.401, 36.154, 192.635, 1)" offset="0%"/><stop stop-color="rgba(111.558, 0, 95.891, 1)" offset="100%"/></linearGradient></defs><path style="transform:translate(0, 0px); opacity:1" fill="url(#sw-gradient-0)" d="M0,147L30,179.7C60,212,120,278,180,269.5C240,261,300,180,360,187.8C420,196,480,294,540,343C600,392,660,392,720,400.2C780,408,840,425,900,400.2C960,376,1020,310,1080,261.3C1140,212,1200,180,1260,147C1320,114,1380,82,1440,73.5C1500,65,1560,82,1620,98C1680,114,1740,131,1800,155.2C1860,180,1920,212,1980,204.2C2040,196,2100,147,2160,163.3C2220,180,2280,261,2340,253.2C2400,245,2460,147,2520,98C2580,49,2640,49,2700,57.2C2760,65,2820,82,2880,81.7C2940,82,3000,65,3060,122.5C3120,180,3180,310,3240,318.5C3300,327,3360,212,3420,187.8C3480,163,3540,229,3600,269.5C3660,310,3720,327,3780,326.7C3840,327,3900,310,3960,253.2C4020,196,4080,98,4140,122.5C4200,147,4260,294,4290,367.5L4320,441L4320,490L4290,490C4260,490,4200,490,4140,490C4080,490,4020,490,3960,490C3900,490,3840,490,3780,490C3720,490,3660,490,3600,490C3540,490,3480,490,3420,490C3360,490,3300,490,3240,490C3180,490,3120,490,3060,490C3000,490,2940,490,2880,490C2820,490,2760,490,2700,490C2640,490,2580,490,2520,490C2460,490,2400,490,2340,490C2280,490,2220,490,2160,490C2100,490,2040,490,1980,490C1920,490,1860,490,1800,490C1740,490,1680,490,1620,490C1560,490,1500,490,1440,490C1380,490,1320,490,1260,490C1200,490,1140,490,1080,490C1020,490,960,490,900,490C840,490,780,490,720,490C660,490,600,490,540,490C480,490,420,490,360,490C300,490,240,490,180,490C120,490,60,490,30,490L0,490Z"/><defs><linearGradient id="sw-gradient-1" x1="0" x2="0" y1="1" y2="0"><stop stop-color="rgba(243, 62, 211.151, 1)" offset="0%"/><stop stop-color="rgba(118.389, 0, 105.439, 1)" offset="100%"/></linearGradient></defs><path style="transform:translate(0, 50px); opacity:0.9" fill="url(#sw-gradient-1)" d="M0,441L30,424.7C60,408,120,376,180,343C240,310,300,278,360,228.7C420,180,480,114,540,122.5C600,131,660,212,720,261.3C780,310,840,327,900,351.2C960,376,1020,408,1080,351.2C1140,294,1200,147,1260,138.8C1320,131,1380,261,1440,285.8C1500,310,1560,229,1620,220.5C1680,212,1740,278,1800,318.5C1860,359,1920,376,1980,318.5C2040,261,2100,131,2160,73.5C2220,16,2280,33,2340,57.2C2400,82,2460,114,2520,130.7C2580,147,2640,147,2700,163.3C2760,180,2820,212,2880,245C2940,278,3000,310,3060,310.3C3120,310,3180,278,3240,261.3C3300,245,3360,245,3420,253.2C3480,261,3540,278,3600,294C3660,310,3720,327,3780,326.7C3840,327,3900,310,3960,253.2C4020,196,4080,98,4140,65.3C4200,33,4260,65,4290,81.7L4320,98L4320,490L4290,490C4260,490,4200,490,4140,490C4080,490,4020,490,3960,490C3900,490,3840,490,3780,490C3720,490,3660,490,3600,490C3540,490,3480,490,3420,490C3360,490,3300,490,3240,490C3180,490,3120,490,3060,490C3000,490,2940,490,2880,490C2820,490,2760,490,2700,490C2640,490,2580,490,2520,490C2460,490,2400,490,2340,490C2280,490,2220,490,2160,490C2100,490,2040,490,1980,490C1920,490,1860,490,1800,490C1740,490,1680,490,1620,490C1560,490,1500,490,1440,490C1380,490,1320,490,1260,490C1200,490,1140,490,1080,490C1020,490,960,490,900,490C840,490,780,490,720,490C660,490,600,490,540,490C480,490,420,490,360,490C300,490,240,490,180,490C120,490,60,490,30,490L0,490Z"/><defs><linearGradient id="sw-gradient-2" x1="0" x2="0" y1="1" y2="0"><stop stop-color="rgba(202.632, 79.222, 180.568, 1)" offset="0%"/><stop stop-color="rgba(136.603, 1.701, 116.897, 1)" offset="100%"/></linearGradient></defs><path style="transform:translate(0, 100px); opacity:0.8" fill="url(#sw-gradient-2)" d="M0,245L30,236.8C60,229,120,212,180,236.8C240,261,300,327,360,359.3C420,392,480,392,540,334.8C600,278,660,163,720,106.2C780,49,840,49,900,40.8C960,33,1020,16,1080,8.2C1140,0,1200,0,1260,57.2C1320,114,1380,229,1440,245C1500,261,1560,180,1620,130.7C1680,82,1740,65,1800,57.2C1860,49,1920,49,1980,40.8C2040,33,2100,16,2160,16.3C2220,16,2280,33,2340,73.5C2400,114,2460,180,2520,204.2C2580,229,2640,212,2700,204.2C2760,196,2820,196,2880,220.5C2940,245,3000,294,3060,326.7C3120,359,3180,376,3240,318.5C3300,261,3360,131,3420,98C3480,65,3540,131,3600,163.3C3660,196,3720,196,3780,236.8C3840,278,3900,359,3960,351.2C4020,343,4080,245,4140,212.3C4200,180,4260,212,4290,228.7L4320,245L4320,490L4290,490C4260,490,4200,490,4140,490C4080,490,4020,490,3960,490C3900,490,3840,490,3780,490C3720,490,3660,490,3600,490C3540,490,3480,490,3420,490C3360,490,3300,490,3240,490C3180,490,3120,490,3060,490C3000,490,2940,490,2880,490C2820,490,2760,490,2700,490C2640,490,2580,490,2520,490C2460,490,2400,490,2340,490C2280,490,2220,490,2160,490C2100,490,2040,490,1980,490C1920,490,1860,490,1800,490C1740,490,1680,490,1620,490C1560,490,1500,490,1440,490C1380,490,1320,490,1260,490C1200,490,1140,490,1080,490C1020,490,960,490,900,490C840,490,780,490,720,490C660,490,600,490,540,490C480,490,420,490,360,490C300,490,240,490,180,490C120,490,60,490,30,490L0,490Z"/><defs><linearGradient id="sw-gradient-3" x1="0" x2="0" y1="1" y2="0"><stop stop-color="rgba(197.42, 50.034, 232.231, 1)" offset="0%"/><stop stop-color="rgba(104.269, 0, 134.327, 1)" offset="100%"/></linearGradient></defs><path style="transform:translate(0, 150px); opacity:0.7" fill="url(#sw-gradient-3)" d="M0,49L30,57.2C60,65,120,82,180,130.7C240,180,300,261,360,253.2C420,245,480,147,540,122.5C600,98,660,147,720,196C780,245,840,294,900,334.8C960,376,1020,408,1080,375.7C1140,343,1200,245,1260,196C1320,147,1380,147,1440,138.8C1500,131,1560,114,1620,106.2C1680,98,1740,98,1800,138.8C1860,180,1920,261,1980,253.2C2040,245,2100,147,2160,163.3C2220,180,2280,310,2340,375.7C2400,441,2460,441,2520,441C2580,441,2640,441,2700,392C2760,343,2820,245,2880,204.2C2940,163,3000,180,3060,220.5C3120,261,3180,327,3240,302.2C3300,278,3360,163,3420,106.2C3480,49,3540,49,3600,114.3C3660,180,3720,310,3780,351.2C3840,392,3900,343,3960,277.7C4020,212,4080,131,4140,155.2C4200,180,4260,310,4290,375.7L4320,441L4320,490L4290,490C4260,490,4200,490,4140,490C4080,490,4020,490,3960,490C3900,490,3840,490,3780,490C3720,490,3660,490,3600,490C3540,490,3480,490,3420,490C3360,490,3300,490,3240,490C3180,490,3120,490,3060,490C3000,490,2940,490,2880,490C2820,490,2760,490,2700,490C2640,490,2580,490,2520,490C2460,490,2400,490,2340,490C2280,490,2220,490,2160,490C2100,490,2040,490,1980,490C1920,490,1860,490,1800,490C1740,490,1680,490,1620,490C1560,490,1500,490,1440,490C1380,490,1320,490,1260,490C1200,490,1140,490,1080,490C1020,490,960,490,900,490C840,490,780,490,720,490C660,490,600,490,540,490C480,490,420,490,360,490C300,490,240,490,180,490C120,490,60,490,30,490L0,490Z"/></svg>