<?xml version="1.0" standalone="no"?>
<svg xmlns:xlink="http://www.w3.org/1999/xlink" id="wave" style="transform:rotate(0deg); transition: 0.3s" viewBox="0 0 1440 490" version="1.1" xmlns="http://www.w3.org/2000/svg"><defs><linearGradient id="sw-gradient-0" x1="0" x2="0" y1="1" y2="0"><stop stop-color="rgba(243, 106, 62, 1)" offset="0%"/><stop stop-color="rgba(255, 179, 11, 1)" offset="100%"/></linearGradient></defs><path style="transform:translate(0, 0px); opacity:1" fill="url(#sw-gradient-0)" d="M0,49L30,57.2C60,65,120,82,180,114.3C240,147,300,196,360,196C420,196,480,147,540,138.8C600,131,660,163,720,196C780,229,840,261,900,302.2C960,343,1020,392,1080,383.8C1140,376,1200,310,1260,236.8C1320,163,1380,82,1440,49C1500,16,1560,33,1620,40.8C1680,49,1740,49,1800,73.5C1860,98,1920,147,1980,212.3C2040,278,2100,359,2160,326.7C2220,294,2280,147,2340,114.3C2400,82,2460,163,2520,163.3C2580,163,2640,82,2700,49C2760,16,2820,33,2880,73.5C2940,114,3000,180,3060,220.5C3120,261,3180,278,3240,245C3300,212,3360,131,3420,138.8C3480,147,3540,245,3600,236.8C3660,229,3720,114,3780,81.7C3840,49,3900,98,3960,114.3C4020,131,4080,114,4140,155.2C4200,196,4260,294,4290,343L4320,392L4320,490L4290,490C4260,490,4200,490,4140,490C4080,490,4020,490,3960,490C3900,490,3840,490,3780,490C3720,490,3660,490,3600,490C3540,490,3480,490,3420,490C3360,490,3300,490,3240,490C3180,490,3120,490,3060,490C3000,490,2940,490,2880,490C2820,490,2760,490,2700,490C2640,490,2580,490,2520,490C2460,490,2400,490,2340,490C2280,490,2220,490,2160,490C2100,490,2040,490,1980,490C1920,490,1860,490,1800,490C1740,490,1680,490,1620,490C1560,490,1500,490,1440,490C1380,490,1320,490,1260,490C1200,490,1140,490,1080,490C1020,490,960,490,900,490C840,490,780,490,720,490C660,490,600,490,540,490C480,490,420,490,360,490C300,490,240,490,180,490C120,490,60,490,30,490L0,490Z"/><defs><linearGradient id="sw-gradient-1" x1="0" x2="0" y1="1" y2="0"><stop stop-color="rgba(243, 106, 62, 1)" offset="0%"/><stop stop-color="rgba(255, 179, 11, 1)" offset="100%"/></linearGradient></defs><path style="transform:translate(0, 50px); opacity:0.9" fill="url(#sw-gradient-1)" d="M0,147L30,138.8C60,131,120,114,180,106.2C240,98,300,98,360,98C420,98,480,98,540,155.2C600,212,660,327,720,367.5C780,408,840,376,900,310.3C960,245,1020,147,1080,130.7C1140,114,1200,180,1260,196C1320,212,1380,180,1440,138.8C1500,98,1560,49,1620,24.5C1680,0,1740,0,1800,73.5C1860,147,1920,294,1980,294C2040,294,2100,147,2160,81.7C2220,16,2280,33,2340,49C2400,65,2460,82,2520,147C2580,212,2640,327,2700,326.7C2760,327,2820,212,2880,187.8C2940,163,3000,229,3060,277.7C3120,327,3180,359,3240,367.5C3300,376,3360,359,3420,351.2C3480,343,3540,343,3600,359.3C3660,376,3720,408,3780,416.5C3840,425,3900,408,3960,375.7C4020,343,4080,294,4140,245C4200,196,4260,147,4290,122.5L4320,98L4320,490L4290,490C4260,490,4200,490,4140,490C4080,490,4020,490,3960,490C3900,490,3840,490,3780,490C3720,490,3660,490,3600,490C3540,490,3480,490,3420,490C3360,490,3300,490,3240,490C3180,490,3120,490,3060,490C3000,490,2940,490,2880,490C2820,490,2760,490,2700,490C2640,490,2580,490,2520,490C2460,490,2400,490,2340,490C2280,490,2220,490,2160,490C2100,490,2040,490,1980,490C1920,490,1860,490,1800,490C1740,490,1680,490,1620,490C1560,490,1500,490,1440,490C1380,490,1320,490,1260,490C1200,490,1140,490,1080,490C1020,490,960,490,900,490C840,490,780,490,720,490C660,490,600,490,540,490C480,490,420,490,360,490C300,490,240,490,180,490C120,490,60,490,30,490L0,490Z"/><defs><linearGradient id="sw-gradient-2" x1="0" x2="0" y1="1" y2="0"><stop stop-color="rgba(243, 106, 62, 1)" offset="0%"/><stop stop-color="rgba(255, 179, 11, 1)" offset="100%"/></linearGradient></defs><path style="transform:translate(0, 100px); opacity:0.8" fill="url(#sw-gradient-2)" d="M0,147L30,163.3C60,180,120,212,180,204.2C240,196,300,147,360,147C420,147,480,196,540,228.7C600,261,660,278,720,253.2C780,229,840,163,900,114.3C960,65,1020,33,1080,49C1140,65,1200,131,1260,147C1320,163,1380,131,1440,122.5C1500,114,1560,131,1620,138.8C1680,147,1740,147,1800,179.7C1860,212,1920,278,1980,318.5C2040,359,2100,376,2160,375.7C2220,376,2280,359,2340,318.5C2400,278,2460,212,2520,204.2C2580,196,2640,245,2700,285.8C2760,327,2820,359,2880,351.2C2940,343,3000,294,3060,261.3C3120,229,3180,212,3240,179.7C3300,147,3360,98,3420,130.7C3480,163,3540,278,3600,285.8C3660,294,3720,196,3780,155.2C3840,114,3900,131,3960,138.8C4020,147,4080,147,4140,130.7C4200,114,4260,82,4290,65.3L4320,49L4320,490L4290,490C4260,490,4200,490,4140,490C4080,490,4020,490,3960,490C3900,490,3840,490,3780,490C3720,490,3660,490,3600,490C3540,490,3480,490,3420,490C3360,490,3300,490,3240,490C3180,490,3120,490,3060,490C3000,490,2940,490,2880,490C2820,490,2760,490,2700,490C2640,490,2580,490,2520,490C2460,490,2400,490,2340,490C2280,490,2220,490,2160,490C2100,490,2040,490,1980,490C1920,490,1860,490,1800,490C1740,490,1680,490,1620,490C1560,490,1500,490,1440,490C1380,490,1320,490,1260,490C1200,490,1140,490,1080,490C1020,490,960,490,900,490C840,490,780,490,720,490C660,490,600,490,540,490C480,490,420,490,360,490C300,490,240,490,180,490C120,490,60,490,30,490L0,490Z"/><defs><linearGradient id="sw-gradient-3" x1="0" x2="0" y1="1" y2="0"><stop stop-color="rgba(243, 106, 62, 1)" offset="0%"/><stop stop-color="rgba(255, 179, 11, 1)" offset="100%"/></linearGradient></defs><path style="transform:translate(0, 150px); opacity:0.7" fill="url(#sw-gradient-3)" d="M0,441L30,441C60,441,120,441,180,441C240,441,300,441,360,432.8C420,425,480,408,540,375.7C600,343,660,294,720,302.2C780,310,840,376,900,351.2C960,327,1020,212,1080,179.7C1140,147,1200,196,1260,187.8C1320,180,1380,114,1440,89.8C1500,65,1560,82,1620,114.3C1680,147,1740,196,1800,220.5C1860,245,1920,245,1980,261.3C2040,278,2100,310,2160,326.7C2220,343,2280,343,2340,285.8C2400,229,2460,114,2520,81.7C2580,49,2640,98,2700,122.5C2760,147,2820,147,2880,130.7C2940,114,3000,82,3060,81.7C3120,82,3180,114,3240,147C3300,180,3360,212,3420,245C3480,278,3540,310,3600,302.2C3660,294,3720,245,3780,245C3840,245,3900,294,3960,302.2C4020,310,4080,278,4140,245C4200,212,4260,180,4290,163.3L4320,147L4320,490L4290,490C4260,490,4200,490,4140,490C4080,490,4020,490,3960,490C3900,490,3840,490,3780,490C3720,490,3660,490,3600,490C3540,490,3480,490,3420,490C3360,490,3300,490,3240,490C3180,490,3120,490,3060,490C3000,490,2940,490,2880,490C2820,490,2760,490,2700,490C2640,490,2580,490,2520,490C2460,490,2400,490,2340,490C2280,490,2220,490,2160,490C2100,490,2040,490,1980,490C1920,490,1860,490,1800,490C1740,490,1680,490,1620,490C1560,490,1500,490,1440,490C1380,490,1320,490,1260,490C1200,490,1140,490,1080,490C1020,490,960,490,900,490C840,490,780,490,720,490C660,490,600,490,540,490C480,490,420,490,360,490C300,490,240,490,180,490C120,490,60,490,30,490L0,490Z"/></svg>