<?xml version="1.0" standalone="no"?>
<svg xmlns:xlink="http://www.w3.org/1999/xlink" id="wave" style="transform:rotate(0deg); transition: 0.3s" viewBox="0 0 1440 200" version="1.1" xmlns="http://www.w3.org/2000/svg"><defs><linearGradient id="sw-gradient-0" x1="0" x2="0" y1="1" y2="0"><stop stop-color="rgba(225.401, 36.154, 192.635, 1)" offset="0%"/><stop stop-color="rgba(111.558, 0, 95.891, 1)" offset="100%"/></linearGradient></defs><path style="transform:translate(0, 0px); opacity:1" fill="url(#sw-gradient-0)" d="M0,60L34.3,73.3C68.6,87,137,113,206,110C274.3,107,343,73,411,76.7C480,80,549,120,617,140C685.7,160,754,160,823,163.3C891.4,167,960,173,1029,163.3C1097.1,153,1166,127,1234,106.7C1302.9,87,1371,73,1440,60C1508.6,47,1577,33,1646,30C1714.3,27,1783,33,1851,40C1920,47,1989,53,2057,63.3C2125.7,73,2194,87,2263,83.3C2331.4,80,2400,60,2469,66.7C2537.1,73,2606,107,2674,103.3C2742.9,100,2811,60,2880,40C2948.6,20,3017,20,3086,23.3C3154.3,27,3223,33,3291,33.3C3360,33,3429,27,3497,50C3565.7,73,3634,127,3703,130C3771.4,133,3840,87,3909,76.7C3977.1,67,4046,93,4114,110C4182.9,127,4251,133,4320,133.3C4388.6,133,4457,127,4526,103.3C4594.3,80,4663,40,4731,50C4800,60,4869,120,4903,150L4937.1,180L4937.1,200L4902.9,200C4868.6,200,4800,200,4731,200C4662.9,200,4594,200,4526,200C4457.1,200,4389,200,4320,200C4251.4,200,4183,200,4114,200C4045.7,200,3977,200,3909,200C3840,200,3771,200,3703,200C3634.3,200,3566,200,3497,200C3428.6,200,3360,200,3291,200C3222.9,200,3154,200,3086,200C3017.1,200,2949,200,2880,200C2811.4,200,2743,200,2674,200C2605.7,200,2537,200,2469,200C2400,200,2331,200,2263,200C2194.3,200,2126,200,2057,200C1988.6,200,1920,200,1851,200C1782.9,200,1714,200,1646,200C1577.1,200,1509,200,1440,200C1371.4,200,1303,200,1234,200C1165.7,200,1097,200,1029,200C960,200,891,200,823,200C754.3,200,686,200,617,200C548.6,200,480,200,411,200C342.9,200,274,200,206,200C137.1,200,69,200,34,200L0,200Z"/><defs><linearGradient id="sw-gradient-1" x1="0" x2="0" y1="1" y2="0"><stop stop-color="rgba(243, 62, 211.151, 1)" offset="0%"/><stop stop-color="rgba(118.389, 0, 105.439, 1)" offset="100%"/></linearGradient></defs><path style="transform:translate(0, 50px); opacity:0.9" fill="url(#sw-gradient-1)" d="M0,180L34.3,173.3C68.6,167,137,153,206,140C274.3,127,343,113,411,93.3C480,73,549,47,617,50C685.7,53,754,87,823,106.7C891.4,127,960,133,1029,143.3C1097.1,153,1166,167,1234,143.3C1302.9,120,1371,60,1440,56.7C1508.6,53,1577,107,1646,116.7C1714.3,127,1783,93,1851,90C1920,87,1989,113,2057,130C2125.7,147,2194,153,2263,130C2331.4,107,2400,53,2469,30C2537.1,7,2606,13,2674,23.3C2742.9,33,2811,47,2880,53.3C2948.6,60,3017,60,3086,66.7C3154.3,73,3223,87,3291,100C3360,113,3429,127,3497,126.7C3565.7,127,3634,113,3703,106.7C3771.4,100,3840,100,3909,103.3C3977.1,107,4046,113,4114,120C4182.9,127,4251,133,4320,133.3C4388.6,133,4457,127,4526,103.3C4594.3,80,4663,40,4731,26.7C4800,13,4869,27,4903,33.3L4937.1,40L4937.1,200L4902.9,200C4868.6,200,4800,200,4731,200C4662.9,200,4594,200,4526,200C4457.1,200,4389,200,4320,200C4251.4,200,4183,200,4114,200C4045.7,200,3977,200,3909,200C3840,200,3771,200,3703,200C3634.3,200,3566,200,3497,200C3428.6,200,3360,200,3291,200C3222.9,200,3154,200,3086,200C3017.1,200,2949,200,2880,200C2811.4,200,2743,200,2674,200C2605.7,200,2537,200,2469,200C2400,200,2331,200,2263,200C2194.3,200,2126,200,2057,200C1988.6,200,1920,200,1851,200C1782.9,200,1714,200,1646,200C1577.1,200,1509,200,1440,200C1371.4,200,1303,200,1234,200C1165.7,200,1097,200,1029,200C960,200,891,200,823,200C754.3,200,686,200,617,200C548.6,200,480,200,411,200C342.9,200,274,200,206,200C137.1,200,69,200,34,200L0,200Z"/><defs><linearGradient id="sw-gradient-2" x1="0" x2="0" y1="1" y2="0"><stop stop-color="rgba(202.632, 79.222, 180.568, 1)" offset="0%"/><stop stop-color="rgba(136.603, 1.701, 116.897, 1)" offset="100%"/></linearGradient></defs><path style="transform:translate(0, 100px); opacity:0.8" fill="url(#sw-gradient-2)" d="M0,100L34.3,96.7C68.6,93,137,87,206,96.7C274.3,107,343,133,411,146.7C480,160,549,160,617,136.7C685.7,113,754,67,823,43.3C891.4,20,960,20,1029,16.7C1097.1,13,1166,7,1234,3.3C1302.9,0,1371,0,1440,23.3C1508.6,47,1577,93,1646,100C1714.3,107,1783,73,1851,53.3C1920,33,1989,27,2057,23.3C2125.7,20,2194,20,2263,16.7C2331.4,13,2400,7,2469,6.7C2537.1,7,2606,13,2674,30C2742.9,47,2811,73,2880,83.3C2948.6,93,3017,87,3086,83.3C3154.3,80,3223,80,3291,90C3360,100,3429,120,3497,133.3C3565.7,147,3634,153,3703,130C3771.4,107,3840,53,3909,40C3977.1,27,4046,53,4114,66.7C4182.9,80,4251,80,4320,96.7C4388.6,113,4457,147,4526,143.3C4594.3,140,4663,100,4731,86.7C4800,73,4869,87,4903,93.3L4937.1,100L4937.1,200L4902.9,200C4868.6,200,4800,200,4731,200C4662.9,200,4594,200,4526,200C4457.1,200,4389,200,4320,200C4251.4,200,4183,200,4114,200C4045.7,200,3977,200,3909,200C3840,200,3771,200,3703,200C3634.3,200,3566,200,3497,200C3428.6,200,3360,200,3291,200C3222.9,200,3154,200,3086,200C3017.1,200,2949,200,2880,200C2811.4,200,2743,200,2674,200C2605.7,200,2537,200,2469,200C2400,200,2331,200,2263,200C2194.3,200,2126,200,2057,200C1988.6,200,1920,200,1851,200C1782.9,200,1714,200,1646,200C1577.1,200,1509,200,1440,200C1371.4,200,1303,200,1234,200C1165.7,200,1097,200,1029,200C960,200,891,200,823,200C754.3,200,686,200,617,200C548.6,200,480,200,411,200C342.9,200,274,200,206,200C137.1,200,69,200,34,200L0,200Z"/><defs><linearGradient id="sw-gradient-3" x1="0" x2="0" y1="1" y2="0"><stop stop-color="rgba(197.42, 50.034, 232.231, 1)" offset="0%"/><stop stop-color="rgba(104.269, 0, 134.327, 1)" offset="100%"/></linearGradient></defs><path style="transform:translate(0, 150px); opacity:0.7" fill="url(#sw-gradient-3)" d="M0,20L34.3,23.3C68.6,27,137,33,206,53.3C274.3,73,343,107,411,103.3C480,100,549,60,617,50C685.7,40,754,60,823,80C891.4,100,960,120,1029,136.7C1097.1,153,1166,167,1234,153.3C1302.9,140,1371,100,1440,80C1508.6,60,1577,60,1646,56.7C1714.3,53,1783,47,1851,43.3C1920,40,1989,40,2057,56.7C2125.7,73,2194,107,2263,103.3C2331.4,100,2400,60,2469,66.7C2537.1,73,2606,127,2674,153.3C2742.9,180,2811,180,2880,180C2948.6,180,3017,180,3086,160C3154.3,140,3223,100,3291,83.3C3360,67,3429,73,3497,90C3565.7,107,3634,133,3703,123.3C3771.4,113,3840,67,3909,43.3C3977.1,20,4046,20,4114,46.7C4182.9,73,4251,127,4320,143.3C4388.6,160,4457,140,4526,113.3C4594.3,87,4663,53,4731,63.3C4800,73,4869,127,4903,153.3L4937.1,180L4937.1,200L4902.9,200C4868.6,200,4800,200,4731,200C4662.9,200,4594,200,4526,200C4457.1,200,4389,200,4320,200C4251.4,200,4183,200,4114,200C4045.7,200,3977,200,3909,200C3840,200,3771,200,3703,200C3634.3,200,3566,200,3497,200C3428.6,200,3360,200,3291,200C3222.9,200,3154,200,3086,200C3017.1,200,2949,200,2880,200C2811.4,200,2743,200,2674,200C2605.7,200,2537,200,2469,200C2400,200,2331,200,2263,200C2194.3,200,2126,200,2057,200C1988.6,200,1920,200,1851,200C1782.9,200,1714,200,1646,200C1577.1,200,1509,200,1440,200C1371.4,200,1303,200,1234,200C1165.7,200,1097,200,1029,200C960,200,891,200,823,200C754.3,200,686,200,617,200C548.6,200,480,200,411,200C342.9,200,274,200,206,200C137.1,200,69,200,34,200L0,200Z"/></svg>